<svg xmlns="http://www.w3.org/2000/svg" viewBox="0 0 963.83 221.23"><defs><style>.cls-1{fill:#fff;}</style></defs><g id="Layer_2" data-name="Layer 2"><g id="Layer_1-2" data-name="Layer 1"><path class="cls-1" d="M218.85,219.73H111.23c-.41,0-.82,0-1.23,0a.51.51,0,0,1-.47-.61c0-.13,0-.25.08-.37s.15-.47.2-.71q.56-2.93,1.09-5.84c0-.08,0-.17,0-.25.38-1.9.77-3.8,1.15-5.7l0-.12q.61-3.17,1.21-6.32c0-.12,0-.25,0-.37q.57-2.79,1.15-5.58c0-.16.09-.32.12-.48l1.08-5.84c0-.08,0-.16,0-.25.39-1.94.8-3.87,1.18-5.82s.79-4.13,1.19-6.2a2,2,0,0,1,0-.24c.39-1.94.79-3.88,1.18-5.83s.8-4.13,1.19-6.19c0-.12,0-.25,0-.37l1.17-5.7c0-.12.07-.24.09-.36l1.11-5.84c.12-.65.26-1.29.39-1.94.22-1.22.46-2.43.65-3.66a.85.85,0,0,0-.79-1.05,4.63,4.63,0,0,0-.74,0l-2.86,0H48.42c-1,0-2.07,0-3.1,0-.83,0-1.14.18-1.38,1s-.38,1.52-.55,2.28c-.06.29,0,.58-.1.87-.4,1.94-.82,3.87-1.21,5.81s-.76,4-1.14,6a1.9,1.9,0,0,0,0,.25c-.41,2-.81,4-1.22,5.94a2.1,2.1,0,0,0-.06.24q-.56,2.85-1.09,5.71c0,.2,0,.41-.08.61q-.59,2.85-1.19,5.7c0,.12-.07.24-.09.36l-1.08,5.84s0,.08,0,.12l-1.2,5.82a.53.53,0,0,1,0,.12l-1.14,6c0,.12,0,.25,0,.37l-1.17,5.7c0,.08,0,.16-.07.24-.37,2-.75,4-1.13,6a2.13,2.13,0,0,1,0,.25q-.59,2.91-1.18,5.82a8.81,8.81,0,0,0-.28,1.21,30.74,30.74,0,0,1-.85,4.25,2.54,2.54,0,0,1-.14.47.6.6,0,0,1-.56.42c-.24,0-.49,0-.74,0H1.86c-.34,0-.67,0-1,0-.67-.05-.93-.3-.85-.94.14-1.07.32-2.13.51-3.18.15-.9.34-1.79.52-2.67.39-2,.8-4,1.2-6,0-.08,0-.16.06-.24l1.11-5.83c0-.13,0-.25,0-.37.39-1.95.79-3.89,1.18-5.83,0-.12.08-.23.1-.35q.54-2.87,1.07-5.72c0-.12,0-.25,0-.37.4-2,.81-4,1.21-5.94,0-.08.05-.16.07-.24l1.11-6a1.9,1.9,0,0,1,0-.25c.37-1.86.75-3.72,1.12-5.58,0-.12.08-.24.1-.36q.59-3.1,1.16-6.2c0-.13,0-.25,0-.37.39-1.9.79-3.8,1.18-5.7,0-.08,0-.16.07-.24q.54-2.91,1.09-5.84c0-.12,0-.24.05-.37.39-1.94.8-3.88,1.18-5.82s.78-4.05,1.17-6.07c0-.08,0-.17,0-.25.4-2,.81-4,1.2-5.94s.79-4.14,1.19-6.2c0-.08,0-.17,0-.25q.56-2.79,1.12-5.58c0-.2.12-.4.16-.6q.56-2.91,1.1-5.84c0-.12,0-.25,0-.37q.59-2.91,1.19-5.82c0-.08.05-.16.06-.24.37-1.94.73-3.89,1.1-5.84,0-.12,0-.24,0-.37.39-1.9.77-3.8,1.16-5.7a1.68,1.68,0,0,0,.06-.24l1.17-6.2a2.42,2.42,0,0,1,0-.25l1.17-5.69c0-.12.07-.24.09-.36.37-2,.75-4,1.12-6a2,2,0,0,1,0-.24q.57-2.85,1.15-5.7c0-.17.1-.32.13-.48l1.08-5.84c0-.08,0-.17,0-.25.4-2,.82-4,1.2-5.94s.78-4.05,1.16-6.08a2.13,2.13,0,0,1,0-.25q.59-2.91,1.19-5.82c0-.12.07-.24.09-.36l1.11-6a2.13,2.13,0,0,0,0-.25c.38-1.86.75-3.72,1.13-5.58,0-.16.1-.31.13-.48.37-1.94.73-3.89,1.1-5.83,0-.13,0-.25,0-.37q.59-2.85,1.15-5.71c.15-.72.28-1.45.42-2.18,0-.08,0-.17,0-.25q.57-2.85,1.15-5.7c0-.21.12-.4.16-.6.36-1.91.72-3.81,1.07-5.72,0-.12,0-.25,0-.37.39-1.94.79-3.88,1.18-5.82.14-.73.27-1.46.38-2.2S43.05.07,43.9,0c.33,0,.66,0,1,0H69.32L222.56.05c.66,0,1.33,0,2,0s.9.32.8,1c-.06.44-.2.88-.3,1.32l-.45,2.31a2.13,2.13,0,0,1,0,.25q-.57,2.85-1.16,5.7a2.1,2.1,0,0,0-.06.24L222.18,17a1.9,1.9,0,0,0,0,.25Q221.6,20,221,22.72c0,.12-.07.24-.09.36-.39,2-.78,4.05-1.16,6.08a2.13,2.13,0,0,0,0,.25c-.39,1.9-.79,3.79-1.17,5.7s-.77,3.88-1.15,5.82c-.15.77-.31,1.54-.47,2.31a3.71,3.71,0,0,0-.1.48.81.81,0,0,0,.72,1,3.73,3.73,0,0,0,.74.05h93.24c2.82,0,5.61.28,8.41.49a10.17,10.17,0,0,1,1.46.28c.61.13,1.21.29,1.82.38a9,9,0,0,1,2.16.55,9.38,9.38,0,0,0,1.07.3,7.38,7.38,0,0,1,.95.26c1,.41,2.05.88,3.1,1.24a25.4,25.4,0,0,1,4,1.95,36.89,36.89,0,0,1,7.34,5.45,38.61,38.61,0,0,1,5.39,6.44,42.74,42.74,0,0,1,3.08,5.63c.44.93.67,2,1.09,2.89.58,1.3.74,2.71,1.22,4a4.52,4.52,0,0,1,.2.72,50,50,0,0,1,.91,11.59,31.6,31.6,0,0,1-.56,5,2.2,2.2,0,0,0-.06.37,34.93,34.93,0,0,1-1.08,5.46,34.22,34.22,0,0,1-1.18,3.77c-.34,1-.72,2-1.11,3s-.69,1.77-1.1,2.62c-.64,1.29-1.36,2.54-2,3.83a39.12,39.12,0,0,1-2.8,4.66,66.48,66.48,0,0,1-10.64,12.2,60.17,60.17,0,0,1-6.18,5,55.46,55.46,0,0,1-7.51,4.53c-1.37.66-2.72,1.38-4.12,2-1,.43-2,.68-3,1.14s-2.3.68-3.38,1.18l-.12.05-4.45,1.09c-.32.07-.66.07-1,.15a45.76,45.76,0,0,1-9.1,1,9.86,9.86,0,0,0-1.23.11.62.62,0,0,0-.52.73,4.83,4.83,0,0,0,.33,1.06q1.15,2.46,2.34,4.9c.66,1.37,1.36,2.73,2,4.1s1.28,2.76,1.92,4.15l.94,2q1.19,2.52,2.38,5c.67,1.37,1.37,2.72,2,4.09s1.26,2.78,1.91,4.16,1.34,2.73,2,4.11c.39.81.75,1.64,1.14,2.46s.82,1.7,1.24,2.55c.32.67.66,1.33,1,2,.91,1.94,1.79,3.89,2.71,5.82.65,1.38,1.35,2.73,2,4.11.39.81.74,1.65,1.12,2.47s.8,1.63,1.2,2.44.66,1.32,1,2c.93,2,1.82,4,2.76,5.93s1.91,3.92,2.86,5.89c.79,1.63,1.56,3.27,2.33,4.9.2.42,0,.73-.48.74s-1.16,0-1.73,0H218.85ZM120,91.17a10.83,10.83,0,0,1,2.55,1.64c2.93,2.07,5.82,4.2,8.72,6.32q5.25,3.83,10.48,7.68a2,2,0,0,0,.63.38,2.16,2.16,0,0,0,.67,0,4.06,4.06,0,0,0-.37-2c-.2-.53-.35-1.09-.53-1.64l-.27-.82c-.4-1.17-.82-2.33-1.2-3.5s-.71-2.37-1.06-3.55c-.05-.16-.14-.31-.19-.46-.15-.43-.29-.86-.43-1.29s-.25-.78-.38-1.18l-.42-1.29c-.15-.43-.29-.85-.43-1.28s-.24-.71-.35-1.06c-.37-1.18-.72-2.37-1.11-3.54s-.83-2.42-1.24-3.62c0-.16-.06-.33-.11-.49a1.38,1.38,0,0,1,.64-1.69q4.13-3,8.23-6l7.3-5.31,5.11-3.7c.27-.2.56-.37.81-.57a.41.41,0,0,0-.13-.7,5.09,5.09,0,0,0-1.1-.13l-25.41,0a4.54,4.54,0,0,1-.74,0,1,1,0,0,1-.9-.75,27.29,27.29,0,0,0-.93-3c-.38-1.17-.71-2.36-1.08-3.54-.17-.55-.39-1.09-.58-1.63s-.3-.94-.46-1.41L125.35,52c-.16-.47-.31-.94-.46-1.41s-.23-.7-.34-1.06c-.37-1.17-.73-2.36-1.12-3.53s-.83-2.42-1.23-3.63c-.53-1.6-1-3.21-1.57-4.81a1.12,1.12,0,0,0-.19-.46.9.9,0,0,0-.49-.28c-.1,0-.28.18-.33.31-.18.46-.31.94-.46,1.41-.38,1.13-.78,2.26-1.14,3.4s-.71,2.37-1.07,3.55c0,.2-.17.38-.23.57-.14.39-.26.78-.39,1.17s-.24.79-.37,1.18l-.45,1.41c-.11.35-.22.71-.34,1.06-.38,1.13-.79,2.25-1.15,3.39s-.67,2.38-1.08,3.55c-.56,1.55-1.1,3.1-1.51,4.7a1,1,0,0,1-1,.82,6.23,6.23,0,0,1-.74,0l-1.37,0h-24a3.49,3.49,0,0,0-.86.07.79.79,0,0,0-.46.34c-.12.21,0,.4.22.52L89,68.43l7.32,5.3,5.21,3.77,3.1,2.26c.72.52.86.82.6,1.68-.42,1.42-.9,2.82-1.36,4.23l-.32,1.07-.36,1.18c-.15.47-.31.94-.46,1.41s-.24.7-.35,1-.29.86-.43,1.29-.17.64-.27,1c-.41,1.21-.84,2.42-1.25,3.63-.49,1.48-1,3-1.45,4.46-.09.28-.15.56-.23.83l-.42,1.3-.36,1c-.18.55-.37,1.09-.54,1.64a7.15,7.15,0,0,0-.3,1.19.61.61,0,0,0,.21.52.62.62,0,0,0,.56,0c.52-.35,1-.75,1.49-1.11,3.44-2.5,6.89-5,10.33-7.47,2.64-1.92,5.26-3.86,7.9-5.77C118.36,92.28,119.18,91.72,120,91.17Z"/><path class="cls-1" d="M585.52,37.9h22.54c1.61,0,3.21,0,4.82.11a15.2,15.2,0,0,1,4.72.82,7.55,7.55,0,0,0,.93.26,25.32,25.32,0,0,1,14.29,9.16A27.55,27.55,0,0,1,636,53.52,52.19,52.19,0,0,1,637.8,59a9.09,9.09,0,0,1,.38,2.08,48,48,0,0,1,0,9.81,17.35,17.35,0,0,1-.44,2.26c-.23,1-.45,2-.76,3a32.84,32.84,0,0,1-1.5,4.35,46.82,46.82,0,0,1-3.14,5.94,33.53,33.53,0,0,1-8,8.71,28.25,28.25,0,0,1-7.17,4.07c-1,.37-2,.77-3,1.17a1.08,1.08,0,0,0-.77,1.19,12.89,12.89,0,0,0,.53,2c.66,1.94,1.32,3.88,2,5.8a25.7,25.7,0,0,0,3.53,7.21,10.49,10.49,0,0,0,6.26,3.8c3.28.73,6.51.29,9.76-.19.51-.08,1-.17,1.52-.2a.77.77,0,0,1,.82.86,2.75,2.75,0,0,1,0,.57c-.55,2.7-1.21,5.39-1.62,8.11s-1,5.17-1.45,7.75a2.08,2.08,0,0,1-1.5,1.76A40.77,40.77,0,0,1,623,141.42c-1,.1-2,.19-3.06.35a38.48,38.48,0,0,1-13.41-.11,37.17,37.17,0,0,1-6.09-1.72,15.89,15.89,0,0,1-2.89-1.51,21.18,21.18,0,0,1-7.51-8.1,28.57,28.57,0,0,1-2.9-8.11c-.1-.56-.32-1.11-.47-1.67-.25-.92-.48-1.85-.73-2.78l-.6-2.23c-.19-.68-.38-1.36-.56-2-.27-1-.53-2-.79-3-.13-.5-.28-1-.4-1.49-.46-1.8-.9-3.6-1.37-5.4a1.36,1.36,0,0,0-1.4-1.1,4,4,0,0,0-.77,0,1.56,1.56,0,0,0-1.53,1.46c-.5,3.1-1,6.21-1.47,9.31-.09.57-.19,1.14-.29,1.71l-1,5.69c-.14.75-.3,1.51-.44,2.27l-.72,4.16c0,.13,0,.26,0,.39-.76,4.1-1.51,8.2-2.3,12.29-.2,1.07-.51,1.27-1.57,1.3-.71,0-1.41,0-2.12,0H540.87A13.65,13.65,0,0,1,539,141a.89.89,0,0,1-.82-1.1c.35-2.22.72-4.43,1.09-6.65.24-1.39.49-2.78.73-4.17,0-.12,0-.26,0-.38q.88-4.92,1.79-9.85c0-.18.1-.37.14-.56.58-3.35,1.15-6.7,1.73-10,0-.25,0-.51.09-.76.62-3.41,1.26-6.82,1.89-10.22,0-.06,0-.13,0-.19.57-3.35,1.15-6.7,1.72-10,0-.19,0-.38.06-.57q.94-5.11,1.88-10.22c0-.13.07-.25.09-.38.58-3.41,1.16-6.83,1.73-10.24,0-.13,0-.26.05-.39.61-3.34,1.23-6.68,1.84-10,0-.12.07-.24.09-.37.59-3.42,1.16-6.83,1.76-10.24.34-1.9.72-3.79,1.12-5.67.17-.79.52-1,1.38-1.07.26,0,.51,0,.77,0h27.36ZM587.77,84a22.51,22.51,0,0,0,7.63-1,11.69,11.69,0,0,0,7-5.35,16.71,16.71,0,0,0,2-5.57c.55-2.76.73-5.56-.65-8.26A8.81,8.81,0,0,0,597.4,59c-2.9-.64-5.87-.45-8.81-.55a1.76,1.76,0,0,0-1.81,1.16,7.57,7.57,0,0,0-.45,1.47c-.55,2.89-1.07,5.79-1.6,8.68,0,.13,0,.26-.05.39-.57,3.27-1.14,6.55-1.73,9.83-.09.5-.27,1-.38,1.49a6.2,6.2,0,0,0-.19,1.13c-.07.88.3,1.33,1.21,1.36C584.87,84,586.15,84,587.77,84Z"/><path class="cls-1" d="M920.46,131.91a1.28,1.28,0,0,0-1.61.48,23.43,23.43,0,0,1-4.86,4.36,37.27,37.27,0,0,1-6.36,3.54,30,30,0,0,1-6.07,1.82,20.57,20.57,0,0,1-8.8-.13c-.63-.14-1.24-.34-1.87-.45a20.06,20.06,0,0,1-7.37-3.16,18,18,0,0,1-6.77-8.18,18.59,18.59,0,0,1-1.67-6.29,36.88,36.88,0,0,1,1-12c.67-2.54,1.13-5.14,1.77-7.69.58-2.29,1.28-4.56,1.91-6.84.16-.56.29-1.12.42-1.68a7.92,7.92,0,0,1,.28-1.32c.94-2.22,1-4.63,1.61-6.93a6.12,6.12,0,0,0-.34-4.14,3.47,3.47,0,0,0-2.37-2.06,5.73,5.73,0,0,0-2.85-.07,15.39,15.39,0,0,1-1.89.37,1.08,1.08,0,0,1-1.29-1.09c0-.45,0-.9,0-1.35,0-2.25,0-4.49,0-6.74a8.68,8.68,0,0,1,.1-1.53,2,2,0,0,1,1.28-1.58,33.63,33.63,0,0,1,8.61-2.62,16.53,16.53,0,0,0,1.71-.3,42.14,42.14,0,0,1,14-.68,18.75,18.75,0,0,1,9.46,3.47A13.34,13.34,0,0,1,912,72.8a10.39,10.39,0,0,1,1.85,4.39c.06.7.31,1.38.43,2.08a16.28,16.28,0,0,1,0,5.74c-.22,1.14-.4,2.28-.6,3.42a6.22,6.22,0,0,1-.15.75c-.61,1.89-1.25,3.77-1.87,5.65s-1.18,3.66-1.76,5.49c0,.12,0,.26-.09.37-1,2.06-1.1,4.34-1.62,6.52a28,28,0,0,0-.46,3.43,8.48,8.48,0,0,0,1.14,4.81,5.06,5.06,0,0,0,2.67,2.37,8.68,8.68,0,0,0,6.4-.11,4.14,4.14,0,0,0,1-.58,12.1,12.1,0,0,0,3.85-4.71,45,45,0,0,0,2.6-8c.81-3.31,1.15-6.7,1.89-10s1.1-6.71,1.65-10.06c.12-.76.3-1.51.44-2.27.25-1.39.48-2.78.71-4.17.07-.38.07-.78.16-1.15A63.72,63.72,0,0,0,931.55,69c0-.13.05-.26.07-.38.33-1.53.67-1.82,2.19-1.88.25,0,.51,0,.77,0h27.35c1.6-.08,2.15.43,1.8,2-.41,1.88-.69,3.79-1,5.68q-.86,5.13-1.69,10.25a1.08,1.08,0,0,1,0,.19c-.6,3.35-1.21,6.69-1.82,10,0,.19-.09.37-.13.56-.58,3.42-1.16,6.83-1.73,10.25-.05.25-.05.51-.09.76-.59,3.22-1.19,6.43-1.77,9.65-.22,1.2-.41,2.4-.62,3.61,0,.19,0,.38-.06.57-.6,3.35-1.2,6.69-1.81,10-.08.44-.25.87-.29,1.31a50.3,50.3,0,0,1-1.72,8.28,34.73,34.73,0,0,1-1.91,6c-.53,1.16-1,2.37-1.41,3.57a40.28,40.28,0,0,1-5.39,9.71,36.73,36.73,0,0,1-10.08,9.68,42.93,42.93,0,0,1-5.7,3.16c-1.64.7-3.34,1.29-5.05,1.85-2.77.91-5.65,1.16-8.46,1.78a8.67,8.67,0,0,1-1.34.2c-5.45.44-10.9.62-16.3-.54-.75-.16-1.52-.24-2.28-.36a7.33,7.33,0,0,1-1.34-.18c-2.31-.77-4.78-1-7.05-1.89a14,14,0,0,0-1.48-.42c-.49-.14-1-.23-1.48-.42-1.85-.71-3.71-1.41-5.53-2.19a34.81,34.81,0,0,1-4.77-2.48,1.48,1.48,0,0,1-.72-1.64q.69-4.08,1.4-8.15c.17-1,.37-2,.54-3,.4-2.28.78-4.56,1.18-6.83a2.21,2.21,0,0,1,.18-.55.64.64,0,0,1,.8-.34,3.94,3.94,0,0,1,.48.31,49,49,0,0,0,8,4.53,39.28,39.28,0,0,0,10.07,3.11,37,37,0,0,0,12.28.22,14.19,14.19,0,0,0,4.15-1.47,16.24,16.24,0,0,0,6.74-6.65,31.31,31.31,0,0,0,3.56-11.29c.13-.89.28-1.77.39-2.66A7.81,7.81,0,0,0,920.46,131.91Z"/><path class="cls-1" d="M431.27,141.15q-16.86,0-33.71,0c-1.87,0-2.37-.14-1.93-2.39.67-3.33,1.34-6.66,1.93-10s1.09-6.71,1.64-10.07c.09-.57.21-1.13.33-1.7s.24-.87.31-1.31c.59-3.41,1.17-6.83,1.75-10.24,0-.19,0-.39.06-.58.6-3.28,1.21-6.56,1.81-9.84,0-.19.1-.37.14-.56.58-3.41,1.15-6.83,1.73-10.24,0-.13,0-.26.05-.39l1.83-10c0-.19.1-.37.14-.56q.84-5,1.7-10.06c0-.12,0-.25,0-.38.62-3.41,1.26-6.81,1.87-10.22s1.23-7.08,1.84-10.62c.15-.88.25-1.78.45-2.65A1.7,1.7,0,0,1,415,37.84c.32,0,.64,0,1,0h67.82a11.92,11.92,0,0,1,1.34,0,1,1,0,0,1,.9,1.06c0,.44-.16.88-.24,1.32l-.93,5.11c-.1.57-.19,1.14-.29,1.71q-.48,2.74-1,5.49c-.07.44-.13.89-.24,1.33a33.41,33.41,0,0,0-1,5.87c-.08,1.23-.44,1.86-2.11,1.93-.45,0-.9,0-1.35,0H445.73c-1.66,0-1.91.17-2.31,1.7-.3,1.12-.52,2.25-.73,3.39-.36,1.89-.69,3.78-1,5.68-.16,1-.31,1.9-.38,2.86a1.08,1.08,0,0,0,1.12,1.27,6.59,6.59,0,0,0,.77,0l25.43,0c.39,0,.77,0,1.16,0,1.11.07,1.42.5,1.2,1.65-.06.32-.16.62-.22.94-.28,1.51-.55,3-.82,4.54,0,.07,0,.13,0,.19q-.8,4.65-1.61,9.3c-.29,1.7-.6,3.4-.89,5.11-.22,1.35-.51,1.65-1.83,1.75-.45,0-.9,0-1.35,0q-12.14,0-24.28,0a14.93,14.93,0,0,0-2.11.12,1.45,1.45,0,0,0-1.28,1.26c0,.12,0,.25-.06.38-.51,3.23-1,6.46-1.54,9.69-.17,1-.43,2-.64,3a8.92,8.92,0,0,0-.2,1.13,1.14,1.14,0,0,0,1,1.22,16.63,16.63,0,0,0,2.12.1h32.17c.51,0,1,0,1.54,0,.89.06,1.26.48,1.2,1.38a8.92,8.92,0,0,1-.2,1.13c-.26,1.39-.51,2.77-.77,4.16a1.25,1.25,0,0,1,0,.19c-.58,3.09-1.17,6.17-1.75,9.26-.25,1.33-.48,2.65-.72,4-.17.88-.32,1.76-.54,2.63a1.72,1.72,0,0,1-1.81,1.42H431.27Z"/><path class="cls-1" d="M862.46,66.7h5.78a6.35,6.35,0,0,1,1.15.07.82.82,0,0,1,.7.8A7.13,7.13,0,0,1,870,69.1c-.61,3.15-1.25,6.29-1.87,9.44-.21,1.07-.37,2.15-.55,3.22-.13.76-.22,1.53-.42,2.27a1.92,1.92,0,0,1-2,1.67c-.38,0-.77,0-1.16,0h-10.4c-.32,0-.64,0-1,0a1.92,1.92,0,0,0-1.86,1.42,17.1,17.1,0,0,0-.47,2.26c-.3,1.64-.58,3.28-.87,4.92,0,.13-.06.25-.08.38l-1.68,10c0,.13,0,.26-.05.39q-.93,5.1-1.88,10.22c0,.12-.07.24-.09.37-.56,3.35-1.13,6.7-1.69,10.05,0,.13,0,.26,0,.39q-.92,5-1.84,10c-.06.31-.18.62-.21.94-.32,3.13-1.15,6.17-1.67,9.27,0,.26-.06.52-.13.76q-.94,3-1.9,6a40,40,0,0,1-1.46,3.76,31.87,31.87,0,0,1-9,12.31,29.83,29.83,0,0,1-8.13,4.66,47.38,47.38,0,0,1-7.26,1.84,36.2,36.2,0,0,1-8.06.44,22.45,22.45,0,0,1-5.71-.77c-.68-.18-1.39-.27-2.08-.41a10.86,10.86,0,0,1-1.5-.34,49.75,49.75,0,0,1-5.9-2.31,22.67,22.67,0,0,1-2.59-1.65,2,2,0,0,1-.8-2.21c.13-.5.22-1,.33-1.51s.29-1.12.38-1.69q.78-4.94,1.54-9.89c0-.12,0-.25,0-.38.18-1.22.66-1.45,1.66-.83.7.44,1.45.81,2.15,1.26a9.42,9.42,0,0,0,5,1.27,19.19,19.19,0,0,0,4.2-.42,6.47,6.47,0,0,0,3.26-2,11.22,11.22,0,0,0,2.57-4,41.45,41.45,0,0,0,2.5-10.05c.06-.51.17-1,.27-1.51s.2-.75.26-1.13q.93-5.4,1.85-10.81c0-.12,0-.25.05-.38q.9-5.11,1.82-10.23c0-.19.1-.37.14-.56q.87-5.22,1.75-10.44c0-.19,0-.38.06-.57.6-3.35,1.21-6.69,1.81-10q.29-1.52.54-3c.19-1.14.38-2.27.55-3.41a7.53,7.53,0,0,0,.15-1.33,1.08,1.08,0,0,0-.94-1.07,8.69,8.69,0,0,0-1.53-.12h-6a11,11,0,0,1-1.15,0,1,1,0,0,1-1-1,3.86,3.86,0,0,1,0-1c.1-.63.23-1.26.37-1.89s.28-1,.37-1.49c.59-3.22,1.17-6.44,1.76-9.66.16-.88.32-1.76.5-2.64a1.6,1.6,0,0,1,1.65-1.34c.38,0,.77,0,1.15,0h5.59c.39,0,.77,0,1.16,0,1.18-.09,1.59-.43,1.79-1.6s.31-2.42.53-3.62a27.33,27.33,0,0,1,.79-3.36,35.06,35.06,0,0,1,1.54-4.34,28.63,28.63,0,0,1,4.41-7A29.82,29.82,0,0,1,838,40.22a35.34,35.34,0,0,1,7.82-3.14,36.15,36.15,0,0,1,9.07-1.63c1.15,0,2.31-.15,3.46-.24a63,63,0,0,1,11.15.5,29.69,29.69,0,0,1,4.32.92c.91.24,1.17.69.92,1.59a39.11,39.11,0,0,0-1,6.26c-.09.77-.28,1.52-.41,2.28q-.37,2.28-.72,4.56c-.09.57-.1,1.15-.23,1.72-.23,1.08-.7,1.4-1.76,1.29-.32,0-.64-.12-.95-.18a21.72,21.72,0,0,0-7.67,0,7.79,7.79,0,0,0-5.72,4.1,11,11,0,0,0-1.29,3.59c-.16,1.08-.46,2.14-.66,3.21s.14,1.54,1.27,1.66a13.14,13.14,0,0,0,1.54,0h5.39Z"/><path class="cls-1" d="M766.12,143a59.28,59.28,0,0,1-10.57-.47,21.62,21.62,0,0,1-2.63-.57c-.5-.12-1-.3-1.48-.43a31.38,31.38,0,0,1-22.38-21,38.8,38.8,0,0,1-1.89-13.26,24.07,24.07,0,0,1,.26-2.68c.24-1.65.51-3.3.8-4.94a13.75,13.75,0,0,1,.46-1.67c.23-.8.45-1.6.74-2.38.48-1.33.92-2.67,1.52-3.94A44.4,44.4,0,0,1,744.07,75.3a52.09,52.09,0,0,1,8.27-5.21,46.53,46.53,0,0,1,7.46-3,34,34,0,0,1,8.07-1.79c1.73-.08,3.44-.35,5.17-.52a32.38,32.38,0,0,1,7.68.31c.82.12,1.65.23,2.48.31a16.54,16.54,0,0,1,3.75.83,43.13,43.13,0,0,1,4.33,1.57,18.37,18.37,0,0,1,7.11,5.42A18,18,0,0,1,800.5,77c1.26,3,1.19,6,.91,9.1a18.69,18.69,0,0,1-1.93,6.21c-2.39,5-6.23,8.7-10.75,11.78a56,56,0,0,1-9.46,5.09,59.82,59.82,0,0,1-6.46,2.43c-2,.6-4,1.35-6,1.93s-4,1-6,1.45a7.36,7.36,0,0,0-.93.21,1,1,0,0,0-.61,1.25,4.19,4.19,0,0,0,.44.84,11.62,11.62,0,0,0,5.32,4.27A22,22,0,0,0,776.7,123,32.74,32.74,0,0,0,788,119.36a39.62,39.62,0,0,0,4.76-2.88c1.71-1.2,2.26-.74,2.55,1a27.89,27.89,0,0,0,.75,2.78c.18.68.35,1.36.54,2s.41,1.48.63,2.22a10,10,0,0,1,.41,1.28,16.2,16.2,0,0,0,1.12,3.87,1.48,1.48,0,0,1-.44,1.9c-.84.69-1.68,1.39-2.57,2a52.94,52.94,0,0,1-8.31,4.81q-2.26,1-4.64,1.83a52.61,52.61,0,0,1-6.13,1.6,40.4,40.4,0,0,1-4.36.71C770.22,142.78,768.17,142.87,766.12,143Zm7-60.07A9.35,9.35,0,0,0,768,84.46a17.16,17.16,0,0,0-6.49,7.62,42.08,42.08,0,0,0-1.88,5,20.33,20.33,0,0,0-.71,3.57.9.9,0,0,0,1.08,1,15.8,15.8,0,0,0,2.22-.59c.42-.13.81-.39,1.23-.54a34,34,0,0,0,9.84-5.46,13.91,13.91,0,0,0,4.27-5.35,4.6,4.6,0,0,0-1.11-5.6A4.8,4.8,0,0,0,773.15,82.94Z"/><path class="cls-1" d="M683.74,143a59,59,0,0,1-11-.48,19,19,0,0,1-2.44-.53c-.49-.12-1-.33-1.47-.44a28.73,28.73,0,0,1-6.27-2.35,31,31,0,0,1-9.59-7.28,26.8,26.8,0,0,1-4.84-7.34c-.66-1.46-1.27-2.94-1.86-4.42a11.74,11.74,0,0,1-.45-1.67c-.14-.63-.22-1.27-.39-1.89-1.18-4.29-.93-8.64-.56-13,.72-2.46.93-5,1.79-7.47a50.16,50.16,0,0,1,2-5,41.73,41.73,0,0,1,6.68-10,48.4,48.4,0,0,1,10.75-9,52.13,52.13,0,0,1,9.16-4.39c2.06-.76,4.19-1.17,6.26-1.86a9.22,9.22,0,0,1,1.88-.38c2.55-.29,5.1-.57,7.66-.8a31.73,31.73,0,0,1,6.53.28c1.21.14,2.42.27,3.63.48a21,21,0,0,1,2.8.64,30.84,30.84,0,0,1,4.88,1.74c3.46,1.72,6.43,3.92,8.23,7.48a17,17,0,0,1,1.5,11.93,21.25,21.25,0,0,1-.67,2.61,27,27,0,0,1-1.7,3.85,29.78,29.78,0,0,1-9.41,10,50.87,50.87,0,0,1-9.93,5.42c-1.6.65-3.15,1.42-4.78,2-1.8.64-3.66,1.15-5.5,1.67-2.22.63-4.46,1.21-6.68,1.8-.81.22-1.63.38-2.43.62a1,1,0,0,0-.71,1.35,3.4,3.4,0,0,0,.5,1,13,13,0,0,0,5.26,4.06A22.44,22.44,0,0,0,694.45,123a32.68,32.68,0,0,0,10.72-3.49,34.17,34.17,0,0,0,5.39-3.31,2.07,2.07,0,0,1,.48-.31.75.75,0,0,1,1,.26,11.54,11.54,0,0,1,.85,2.13c.77,2.64,1.5,5.29,2.24,7.94.37,1.36.77,2.71,1.1,4.08a1.1,1.1,0,0,1-.2.88,10,10,0,0,1-1.54,1.44,52.75,52.75,0,0,1-9.69,5.84,40.66,40.66,0,0,1-4.64,1.83c-1.9.61-3.83,1-5.75,1.53a27.27,27.27,0,0,1-5.32.82C687.32,142.72,685.53,142.87,683.74,143Zm6.6-60.08a11.23,11.23,0,0,0-1.61.22A13,13,0,0,0,682,87.31,27.15,27.15,0,0,0,677.06,97a29.53,29.53,0,0,0-.76,3.38,1,1,0,0,0,1.19,1.28,8.44,8.44,0,0,0,2-.51,56.69,56.69,0,0,0,7-3.19A27.25,27.25,0,0,0,692.84,93a11.3,11.3,0,0,0,2.32-3.73,4.28,4.28,0,0,0-.16-3.71C694,83.69,692.43,83,690.34,82.91Z"/><path class="cls-1" d="M526.94,132c0,1.35,0,2.7,0,4.05a2.46,2.46,0,0,1-1.66,2.56,37.31,37.31,0,0,1-9.53,2.87c-.77.09-1.52.26-2.28.4a36.48,36.48,0,0,1-10.93.42,20.8,20.8,0,0,1-11.6-4.69A14.34,14.34,0,0,1,487.5,133a19,19,0,0,1-1.56-10.88c.33-2.67.73-5.33,1.28-8,.69-3.32,1.12-6.7,1.67-10.06.12-.69.27-1.38.39-2.08.28-1.58.55-3.15.83-4.73.12-.7.23-1.4.35-2.09.31-1.77.61-3.54.93-5.31q.92-5,1.84-10c0-.19.1-.37.13-.56.57-3.35,1.13-6.7,1.7-10,0-.19,0-.39.06-.58q.94-5.1,1.88-10.22c0-.12.07-.24.09-.37.57-3.42,1.15-6.83,1.71-10.25.1-.57.13-1.15.27-1.71a39.12,39.12,0,0,0,1.09-6.25c.11-1.29.34-1.94,2.19-2.17q3.34-.42,6.7-.67c3.72-.29,7.43-.5,11.15-.77,3.45-.25,6.91-.55,10.36-.8a8.23,8.23,0,0,1,1.72.06.9.9,0,0,1,.73,1c0,.32-.16.62-.21.94q-.9,5.22-1.78,10.43c0,.13,0,.26,0,.38q-.88,4.92-1.8,9.84c0,.19-.1.38-.13.57l-1.77,10.43c0,.12,0,.25,0,.38-.61,3.34-1.23,6.69-1.85,10,0,.19-.1.37-.13.56Q524.4,85,523.57,90c-.05.25-.05.51-.1.76-.61,3.34-1.22,6.69-1.84,10,0,.13-.07.25-.09.37-.58,3.42-1.16,6.83-1.73,10.25a21.55,21.55,0,0,1-.4,2.27,46.62,46.62,0,0,0-1.1,6.84,9.77,9.77,0,0,0,.13,3.45,3.34,3.34,0,0,0,3,2.76,8.71,8.71,0,0,0,1.91,0,10.91,10.91,0,0,0,1.71-.29c1.39-.35,1.85.1,1.83,1.58s0,2.69,0,4Z"/><path class="cls-1" d="M637.35,221.23a24.44,24.44,0,0,1-7.78-1c-1.66-.51-3.27-1.12-4.87-1.75a3.74,3.74,0,0,1-1.37-1,1.81,1.81,0,0,1-.37-1.23c.21-1.85.51-3.69.78-5.52a5,5,0,0,1,.23-.94.86.86,0,0,1,1.24-.51c.7.33,1.36.72,2,1.1a16.29,16.29,0,0,0,10,2,6,6,0,0,0,4.87-3.62c.31-.64.54-1.31.79-2a3.59,3.59,0,0,0,.26-.92c.05-.55.25-1.21-.38-1.55s-.83.21-1.17.47a14.56,14.56,0,0,1-5.33,2.11,6.89,6.89,0,0,1-2.48.16,10.92,10.92,0,0,1-9.36-6.38,15,15,0,0,1-1.33-5.75,24.13,24.13,0,0,1,.44-6.52,20.86,20.86,0,0,1,1.51-4.34,19.53,19.53,0,0,1,5.55-7,15,15,0,0,1,7-3.35c.63-.1,1.25-.26,1.89-.37a10.19,10.19,0,0,1,3.44,0,13.37,13.37,0,0,1,5.7,2.17,4.27,4.27,0,0,0,.84.46,1,1,0,0,0,1.06-.2.47.47,0,0,0,.14-.14c1-1.59,2.48-1.79,4.19-1.7s3.33,0,5,0a11,11,0,0,1,1.15,0,1,1,0,0,1,1,1.18,28.75,28.75,0,0,1-.48,3.81,49.8,49.8,0,0,0-1,6.06c-.08.77-.32,1.51-.45,2.27-.24,1.32-.44,2.65-.67,4q-.95,5.4-1.92,10.79a13,13,0,0,0-.33,1.5,19.11,19.11,0,0,1-1.64,5.91c-1.74,4.34-4.48,7.94-8.83,10a15.15,15.15,0,0,1-6.65,1.74C639.15,221.21,638.25,221.23,637.35,221.23Zm-.57-28.71a23.86,23.86,0,0,0,.24,2.67,3.17,3.17,0,0,0,3.48,2.62,3.83,3.83,0,0,0,2.55-1.18,10.85,10.85,0,0,0,2.74-6c.26-1.58.39-3.18.8-4.72a2.51,2.51,0,0,0-1.15-2.95,4.77,4.77,0,0,0-4.41-.12,7.41,7.41,0,0,0-2.69,3.18A15.54,15.54,0,0,0,636.78,192.52Z"/><path class="cls-1" d="M534.48,203.05a2.47,2.47,0,0,0-2,.92c-3.58,3.15-7.67,3.8-12.21,2.62a10.33,10.33,0,0,1-5.83-4.13,10.91,10.91,0,0,1-1.86-4,22.4,22.4,0,0,1,.1-10.52,19.78,19.78,0,0,1,9.24-12.51,16.92,16.92,0,0,1,8.08-2.22,14,14,0,0,1,6,1.14c.9.38,1.31.24,1.53-.74.42-1.81.76-3.64,1.11-5.47s.62-3.54,1-5.29c.25-1.21.49-1.41,1.67-1.46,3.54-.13,7.05-.46,10.56-.89,1.35-.17,1.73.19,1.62,1.62-.07,1-.28,2-.45,3-.28,1.64-.57,3.28-.85,4.93-.12.69-.25,1.39-.37,2.08-.29,1.71-.58,3.42-.88,5.12q-.95,5.2-1.91,10.41c-.06.32-.17.62-.21.94-.33,2.61-.75,5.21-1.33,7.78a6.11,6.11,0,0,0-.08,1.91A1.72,1.72,0,0,0,549,200c.12,0,.25,0,.38,0,1.57.15,1.62.2,1.68,1.67a11,11,0,0,0,0,1.15,2.33,2.33,0,0,1-1.77,2.78,6.79,6.79,0,0,1-1.27.43c-1.91.26-3.82.5-5.73.68A10.25,10.25,0,0,1,538,206a6.19,6.19,0,0,1-2.89-2.15C534.87,203.62,534.69,203.35,534.48,203.05Zm-8.73-10.26c.1.83.14,1.67.32,2.48a3.35,3.35,0,0,0,5.48,1.77,7.23,7.23,0,0,0,2.19-2.89,17,17,0,0,0,1.24-5,23.55,23.55,0,0,1,.55-3.22c.3-1.5,0-2.39-1.28-3a4.23,4.23,0,0,0-4.24,0,6.84,6.84,0,0,0-2.62,3A17.68,17.68,0,0,0,525.75,192.79Z"/><path class="cls-1" d="M679.44,186.59a21.49,21.49,0,0,1,1.58-9.21A24.71,24.71,0,0,1,694.61,163a28.43,28.43,0,0,1,16.57-2c.82.16,1.65.24,2.47.43a16.57,16.57,0,0,1,6.07,2.77,1.54,1.54,0,0,1,.67,1.32,19.79,19.79,0,0,1-.18,2.3c-.31,2.48-.64,5-1,7.44,0,.19-.06.38-.1.56a.72.72,0,0,1-1.19.45,6.2,6.2,0,0,1-.77-.58,17.47,17.47,0,0,0-5.19-2.87,5.34,5.34,0,0,0-1.69-.33c-1.28-.07-2.56-.14-3.84-.09a10.79,10.79,0,0,0-8.82,4.71,10.6,10.6,0,0,0-2.11,5.09c-.08.83-.22,1.65-.33,2.48a11.3,11.3,0,0,0,.48,5.14,7.74,7.74,0,0,0,5.83,5.31,15.18,15.18,0,0,0,7.06-.25,17.36,17.36,0,0,0,5.68-2.74,6.66,6.66,0,0,1,1.16-.66.68.68,0,0,1,.92.67,2.73,2.73,0,0,1,0,.57,44.15,44.15,0,0,0-.84,6.87c0,.52-.09,1-.15,1.54a3.36,3.36,0,0,1-1.68,2.65,19.62,19.62,0,0,1-6,2.5,32.22,32.22,0,0,1-6.84,1,20.78,20.78,0,0,1-5.72-.66c-.37-.1-.75-.19-1.13-.27a18.54,18.54,0,0,1-14.5-17.4C679.42,188.21,679.44,187.51,679.44,186.59Z"/><path class="cls-1" d="M490.65,202.74c-.48.39-.88.68-1.24,1-3.55,3.34-7.71,4-12.31,2.86a9.77,9.77,0,0,1-4.08-2,12.2,12.2,0,0,1-3.08-4.34c-1.67-3.7-1.54-7.56-.78-11.33a19.64,19.64,0,0,1,7.06-11.79,15.16,15.16,0,0,1,7.2-3.42c.64-.09,1.26-.29,1.89-.34a13.38,13.38,0,0,1,2.68-.06,13.55,13.55,0,0,1,6.61,2.39c.93.71,1,.65,1.93-.22a5.29,5.29,0,0,0,.41-.41,3.09,3.09,0,0,1,2.72-1.09c1.92.07,3.85,0,5.77,0H506c1.89,0,2,.66,1.73,2.08-.65,3.59-1.18,7.21-1.77,10.81-.12.76-.31,1.51-.46,2.26s-.37,1.76-.52,2.64c-.27,1.58-.5,3.17-.78,4.74a3.66,3.66,0,0,0,.21,2.44,1.71,1.71,0,0,0,1.47,1.08,6.2,6.2,0,0,1,1.14.11.86.86,0,0,1,.74.79,26.2,26.2,0,0,1,0,3.07,1.59,1.59,0,0,1-.62.92,5.32,5.32,0,0,1-2.6,1.17c-1.46.22-2.92.41-4.38.59a13.17,13.17,0,0,1-5.14-.53,7.4,7.4,0,0,1-3.27-2.27Zm-8.21-9.82a11.6,11.6,0,0,0,.14,2,3.49,3.49,0,0,0,2,2.68,3.57,3.57,0,0,0,3.94-.67,8.86,8.86,0,0,0,2.68-4.78c.47-2.06.69-4.18,1.17-6.24a2.47,2.47,0,0,0-1.26-2.91,4,4,0,0,0-1.23-.49,4.45,4.45,0,0,0-5,2.13A15.67,15.67,0,0,0,482.44,192.92Z"/><path class="cls-1" d="M588,173.59c.56,0,1.52.07,2.48.17a7,7,0,0,1,5.45,3.48c.69,1.09,1.41,1.26,2.3.33a14.85,14.85,0,0,1,5-3.18,7.84,7.84,0,0,1,1.65-.49,14,14,0,0,1,5.94,0,8.09,8.09,0,0,1,6.37,5.74,12.63,12.63,0,0,1,.28,6.08c-.62,3.61-1.58,7.13-2.31,10.72a3.71,3.71,0,0,0,0,2.26,1.86,1.86,0,0,0,1.72,1.33,5.42,5.42,0,0,1,.57,0c1,.13,1.26.39,1.31,1.33,0,.7,0,1.41,0,2.12a1.61,1.61,0,0,1-.9,1.58,10.12,10.12,0,0,1-2.48,1c-1.7.31-3.43.47-5.16.65a11.42,11.42,0,0,1-4.75-.59,6.17,6.17,0,0,1-4.33-5.17,9.9,9.9,0,0,1,.35-4.76c.32-1,.53-2,.8-3a13.63,13.63,0,0,1,.5-1.65,12.53,12.53,0,0,0,.69-4.93,2.8,2.8,0,0,0-1.73-2.57,2.63,2.63,0,0,0-2.91.3,5.4,5.4,0,0,0-1.92,2.34,14.19,14.19,0,0,0-1.22,4.42,13.75,13.75,0,0,1-.38,1.89c-.11.5-.26,1-.35,1.5-.55,3.35-1.11,6.71-1.63,10.07-.2,1.24-.43,1.55-1.73,1.56-3.59,0-7.19,0-10.79,0a2.58,2.58,0,0,1-.38,0c-.79-.13-1.11-.53-1-1.34.36-2.15.75-4.3,1.13-6.44,0-.07,0-.13,0-.19.56-3.42,1.11-6.84,1.67-10.26.17-1,.39-2,.58-3a19.75,19.75,0,0,0,.39-2.28,2.2,2.2,0,0,0-2.16-2.42c-.19,0-.38,0-.57,0a.91.91,0,0,1-.88-.87c-.05-1.09,0-2.18,0-3.27a1.14,1.14,0,0,1,.81-1,12.09,12.09,0,0,1,4.41-1.26C585.82,173.8,586.72,173.69,588,173.59Z"/><path class="cls-1" d="M428.87,171.82h-4.43c-1.31,0-1.66.19-1.94,1.37-.41,1.74-.74,3.51-1.09,5.27-.08.44-.07.9-.15,1.34-.59,3.28-1.2,6.55-1.8,9.83,0,.19-.1.37-.13.56-.58,3.41-1.14,6.83-1.74,10.24-.26,1.51-.56,3-.92,4.52-.24,1-.55,1.24-1.63,1.24-3.85,0-7.7,0-11.55,0a6,6,0,0,1-.95-.09.91.91,0,0,1-.71-1,.58.58,0,0,1,0-.19c1.08-3.05.9-6.35,1.85-9.43a11.76,11.76,0,0,0,.3-1.9c0-.32.05-.64.1-.95q.93-5.12,1.85-10.22c.15-.82.39-1.63.47-2.45a31.94,31.94,0,0,1,1-5.49,5.07,5.07,0,0,0,.13-.56c.22-1.47-.22-2-1.71-2.05-2.57,0-5.14,0-7.7,0-.52,0-1,0-1.54,0a1,1,0,0,1-1-1.17,4.84,4.84,0,0,1,.18-1.13,25.7,25.7,0,0,0,.89-4.91,13.38,13.38,0,0,1,.35-1.89,1.42,1.42,0,0,1,1.36-1.16,11.91,11.91,0,0,1,1.34-.06h34.64a9.94,9.94,0,0,1,1.34.07.92.92,0,0,1,.84,1.09c-.15,1.34-.31,2.68-.54,4s-.53,2.51-.82,3.76-.57,1.42-1.88,1.43c-1.47,0-3,0-4.42,0Z"/><path class="cls-1" d="M738,207.51a16.37,16.37,0,0,1-7.49-1.63,14.81,14.81,0,0,1-7.66-7.24,15.67,15.67,0,0,1-1.42-9c.78-6,4-10.4,9.08-13.57a20.33,20.33,0,0,1,11.68-3.24c4.75.16,9.08,1.62,12.39,5.27a14.65,14.65,0,0,1,3.71,13.34,17.9,17.9,0,0,1-1.41,4.57,19.49,19.49,0,0,1-6.43,7.49,22.85,22.85,0,0,1-8.26,3.49A36.29,36.29,0,0,1,738,207.51Zm7.47-19.78a6.22,6.22,0,0,0-1.28-4,2.93,2.93,0,0,0-1.29-1.09c-1.77-.57-3.49-.65-5,.7a7.66,7.66,0,0,0-2.23,3.51,37.25,37.25,0,0,0-1,4.68,7,7,0,0,0,.83,4.81,2.89,2.89,0,0,0,1.4,1.25,4.93,4.93,0,0,0,5.61-1.18,8.11,8.11,0,0,0,1.94-3.48c.15-.68.4-1.35.54-2C745.13,189.87,745.3,188.8,745.49,187.73Z"/><path class="cls-1" d="M454.91,189.46c.07-.37.13-.68.21-1s.22-.73.29-1.11a2.94,2.94,0,0,0-1.3-3.17,2.84,2.84,0,0,0-3.39.41,6.09,6.09,0,0,0-2,3,32.88,32.88,0,0,0-1.36,6.58,22,22,0,0,1-.45,2.26c-.22,1.26-.41,2.53-.65,3.79-.29,1.58-.58,3.15-.93,4.71-.23,1-.59,1.24-1.65,1.25-3.59,0-7.18,0-10.77,0a3.69,3.69,0,0,1-.58,0,.9.9,0,0,1-.79-.94,10.12,10.12,0,0,1,.27-1.9,37.73,37.73,0,0,0,1-5.68c.08-.82.32-1.63.47-2.45.24-1.39.46-2.78.7-4.17.18-1,.4-2,.56-3,.27-1.65.51-3.29.74-4.94a4.43,4.43,0,0,0,0-1.15,1.75,1.75,0,0,0-1.91-1.73c-.49,0-1,.26-1.46-.21a2.28,2.28,0,0,1-.34-1.65c0-.65,0-1.29,0-1.93a1.25,1.25,0,0,1,.8-1.2,14.14,14.14,0,0,1,4.78-1.38,31.39,31.39,0,0,1,5.57-.06,7.21,7.21,0,0,1,4.87,2.78c.44.54.86,1.11,1.32,1.64a.67.67,0,0,0,1,0c.39-.42.73-.91,1.15-1.3A11.56,11.56,0,0,1,462.54,174a6.6,6.6,0,0,1,5.15,5.61,10.43,10.43,0,0,1-.08,3.82,8.49,8.49,0,0,1-3.3,5c-2.59,2-5.56,2.08-8.62,1.5C455.41,190,455.19,189.66,454.91,189.46Z"/><path class="cls-1" d="M564.45,173.56c1.08.08,2.17.13,3.25.26a7.27,7.27,0,0,1,4.89,2.74,6,6,0,0,1,1.25,3.95,21.35,21.35,0,0,1-.92,6.44c-.29,1-.53,2-.78,3a10.51,10.51,0,0,1-.39,1.49,18.15,18.15,0,0,0-1.09,5.45,7.36,7.36,0,0,0,0,1.15c.11,1.47.48,1.84,2,2,.19,0,.39,0,.57.06a1.09,1.09,0,0,1,1,1.19,13,13,0,0,0,0,1.53c.27,1.42-.52,2.17-1.64,2.7a6.4,6.4,0,0,1-1.63.55c-1.65.25-3.3.47-5,.64a12.36,12.36,0,0,1-5.12-.66,6.41,6.41,0,0,1-3.4-2.71,7,7,0,0,1-1.16-4.76,7.11,7.11,0,0,1,.16-1.14c.64-2.22.94-4.51,1.67-6.71a56.64,56.64,0,0,0,1.46-5.77,10.94,10.94,0,0,0,.2-2.68,2,2,0,0,0-2.23-2.06c-.13,0-.26.05-.39.05-.64,0-1-.25-1-.9-.06-1,0-2,0-3.07a1.4,1.4,0,0,1,1-1.28,15.2,15.2,0,0,1,6.15-1.34l1.15-.06Z"/><path class="cls-1" d="M761.65,201.31a6.64,6.64,0,0,1,3.78-6.43,7.13,7.13,0,0,1,2.32-.88,5.83,5.83,0,0,1,5.93,2.77,2.36,2.36,0,0,1,.37.88c.75,3.42.05,6-3,8a6.18,6.18,0,0,1-6.77.23A4.76,4.76,0,0,1,761.65,201.31Z"/><path class="cls-1" d="M575.94,163.68c.23,4.26-4.77,8.48-9.85,6.18a4.32,4.32,0,0,1-2.56-3.16,8.44,8.44,0,0,1,.09-4,6.63,6.63,0,0,1,2.93-3.67,8.54,8.54,0,0,1,1.91-.89,5.94,5.94,0,0,1,7.24,3.45,3.06,3.06,0,0,1,.17.74C575.91,162.78,575.92,163.23,575.94,163.68Z"/></g></g></svg>