<svg xmlns="http://www.w3.org/2000/svg" viewBox="0 0 794.93 68.75"><defs><style>.cls-1{fill:#fff;}</style></defs><g id="Layer_2" data-name="Layer 2"><g id="Layer_1-2" data-name="Layer 1"><path class="cls-1" d="M49.91.9V13.22H14.5V27.39H47V38.81H14.5V55.1H50.57V67.43H0V.9Z"/><path class="cls-1" d="M81.07,67.43a20.11,20.11,0,0,1-7.81-1.54,21.78,21.78,0,0,1-6.59-4.22,22.52,22.52,0,0,1-7-14.31H71.35a10.21,10.21,0,0,0,1.25,3.4,10.46,10.46,0,0,0,2.24,2.69,10.11,10.11,0,0,0,2.93,1.77,8.77,8.77,0,0,0,3.3.64,9.64,9.64,0,0,0,3.85-.78A9.83,9.83,0,0,0,88.06,53a10.23,10.23,0,0,0,2.1-3.14,9.64,9.64,0,0,0,.78-3.88,9.3,9.3,0,0,0-.8-4.13,8.27,8.27,0,0,0-2-2.67,10.39,10.39,0,0,0-2.81-1.65c-1-.41-2.06-.75-3.07-1s-1.75-.58-2.6-.89a10.13,10.13,0,0,1-2.27-1.18,5.86,5.86,0,0,1-1.6-1.73,4.87,4.87,0,0,1-.62-2.57A5.94,5.94,0,0,1,76,27.43,28.78,28.78,0,0,1,78,24.13q1.25-1.75,2.69-3.52t2.72-3.28c.28-.32.5-.56.66-.73s.3-.33.42-.48a3.66,3.66,0,0,0,.33-.4l.38-.47h-19L63.32,3.59h29A14.57,14.57,0,0,1,96,4a9.63,9.63,0,0,1,3.14,1.39,7.06,7.06,0,0,1,2.2,2.46,7.62,7.62,0,0,1,0,6.89,26.18,26.18,0,0,1-2.08,3.56c-.83,1.22-1.74,2.41-2.71,3.57s-1.91,2.24-2.79,3.21l-.94,1.11q-.39.45-.9,1.11a21.64,21.64,0,0,1,4.41,3.47,22.14,22.14,0,0,1,3.36,4.42,21.52,21.52,0,0,1,2.12,5.12,21.28,21.28,0,0,1,.73,5.59,20.53,20.53,0,0,1-1.7,8.34A21.85,21.85,0,0,1,89.36,65.73,20.56,20.56,0,0,1,81.07,67.43Z"/><path class="cls-1" d="M187.08.9V67.43H173.29V47.5q0-16.05.9-33.71-3.21,12.88-6.8,23.28L157,67.43H145.58L134.9,37.68a213.41,213.41,0,0,1-6.75-23.61q.85,19.55.85,31.87V67.43H115.21V.9H135.9l10,28.89a167,167,0,0,1,5.52,21.06,181.08,181.08,0,0,1,5.72-21.2L166.59.9Z"/><path class="cls-1" d="M232.41.9V67.43H217.92V.9Z"/><path class="cls-1" d="M260.08,19.17v6.75a21.14,21.14,0,0,1,4.3-4.48,19.24,19.24,0,0,1,11.8-3.64,17.94,17.94,0,0,1,10.49,3,14.08,14.08,0,0,1,5.71,9.63,39.61,39.61,0,0,1,.43,6.66V67.43H279.63V39.71a19.9,19.9,0,0,0-.85-6.85,5.84,5.84,0,0,0-2.69-3,9.81,9.81,0,0,0-4.91-1.23,10.07,10.07,0,0,0-7.37,2.84,9.66,9.66,0,0,0-2.74,5.43,32.31,32.31,0,0,0-.37,5.57v25H247.52V19.17Z"/><path class="cls-1" d="M331,19.17V28.1h-9.82V50.85q0,4.21.75,5.34Q323,57.8,327,57.8a31.56,31.56,0,0,0,4-.29V67.62a78.62,78.62,0,0,1-8.12.47,23.2,23.2,0,0,1-8.6-1.23,9.69,9.69,0,0,1-5.81-7.22,56.73,56.73,0,0,1-.47-9.26V28.1h-8.07V19.17H308V4.63h13.18V19.17Z"/><path class="cls-1" d="M385.78,52.46A20.59,20.59,0,0,1,382,60.11q-6.51,8.64-18.79,8.64-11.15,0-17.8-6.8a21.91,21.91,0,0,1-5.06-8,29.6,29.6,0,0,1-1.84-10.34,26.21,26.21,0,0,1,6.24-17.75,22.85,22.85,0,0,1,18-8q11.43,0,18,8.26,5.76,7.14,5.76,18.65v2H352a16.22,16.22,0,0,0,1.13,6q2.65,6.52,10.2,6.52a9.57,9.57,0,0,0,7.7-3.21,13.56,13.56,0,0,0,2.12-3.59ZM373.12,38.29a15.56,15.56,0,0,0-1.65-5.9,9.64,9.64,0,0,0-4.2-4,9.92,9.92,0,0,0-4.53-1A9.78,9.78,0,0,0,354.1,32,14,14,0,0,0,352,38.29Z"/><path class="cls-1" d="M428.89,18.37V30.6a33.22,33.22,0,0,0-5.15-.57q-7.32,0-10.86,6-1.94,3.34-1.93,11.24V67.43H397.77V19.17h12.56V28.1q5.3-9.93,15.59-9.92A27.29,27.29,0,0,1,428.89,18.37Z"/><path class="cls-1" d="M449,19.17v6.75a21.13,21.13,0,0,1,4.29-4.48,19.27,19.27,0,0,1,11.81-3.64,17.91,17.91,0,0,1,10.48,3,14.08,14.08,0,0,1,5.71,9.63,38.56,38.56,0,0,1,.43,6.66V67.43H468.55V39.71a19.9,19.9,0,0,0-.85-6.85,5.84,5.84,0,0,0-2.69-3,9.78,9.78,0,0,0-4.91-1.23,10.05,10.05,0,0,0-7.36,2.84A9.6,9.6,0,0,0,450,36.88a31.17,31.17,0,0,0-.38,5.57v25H436.45V19.17Z"/><path class="cls-1" d="M539.19,67.43H525.74a15.41,15.41,0,0,1-.85-4.68q-6.2,6-15.92,6-7.7,0-11.94-3.45-4.92-4-4.91-11.14,0-9.06,8.4-12.61Q504,40.14,513.08,39q8.26-1.05,10.2-2.22c1-.6,1.51-1.8,1.51-3.59q0-6.37-8.64-6.38-5.47,0-7.65,2.51A9.73,9.73,0,0,0,506.66,34H494.15q.62-7.54,5.81-11.71,5.57-4.48,16.52-4.48,11.43,0,17,4.58a11.05,11.05,0,0,1,4,7.27,39.67,39.67,0,0,1,.23,5c0,.66,0,3.9-.14,9.72q-.09,8.41-.09,10a56.86,56.86,0,0,0,.56,9.3A17.21,17.21,0,0,0,539.19,67.43ZM524.7,44a13.84,13.84,0,0,1-2.88,1.28,57.49,57.49,0,0,1-6.38,1.22,22.7,22.7,0,0,0-6.8,1.8,5.67,5.67,0,0,0-3,5.43,6.08,6.08,0,0,0,2.17,5,8,8,0,0,0,5.24,1.55,12.1,12.1,0,0,0,9.4-4,7.55,7.55,0,0,0,2-3.78,17,17,0,0,0,.24-3Z"/><path class="cls-1" d="M572.77,19.17V28.1H563V50.85q0,4.21.75,5.34,1.14,1.61,5.1,1.61a31.69,31.69,0,0,0,4-.29V67.62a78.62,78.62,0,0,1-8.12.47,23.2,23.2,0,0,1-8.6-1.23,9.69,9.69,0,0,1-5.81-7.22,56.73,56.73,0,0,1-.47-9.26V28.1H541.7V19.17h8.07V4.63H563V19.17Z"/><path class="cls-1" d="M582.64,6.94a6.71,6.71,0,0,1,.54-2.67,7.11,7.11,0,0,1,1.51-2.22A7.19,7.19,0,0,1,586.93.54,6.84,6.84,0,0,1,589.62,0a6.64,6.64,0,0,1,2.67.54,7,7,0,0,1,2.2,1.51A7.6,7.6,0,0,1,596,4.27a6.71,6.71,0,0,1,.54,2.67A6.8,6.8,0,0,1,596,9.63a7.1,7.1,0,0,1-1.49,2.22,7,7,0,0,1-2.2,1.49,6.64,6.64,0,0,1-2.67.54,6.84,6.84,0,0,1-2.69-.54,7.14,7.14,0,0,1-2.24-1.49,6.68,6.68,0,0,1-1.51-2.22A6.8,6.8,0,0,1,582.64,6.94Zm13.74,12.23V67.43H583.2V19.17Z"/><path class="cls-1" d="M633.14,17.85q10.8,0,17.64,7t6.79,18.41q0,11.85-7.22,18.89-6.78,6.61-17.64,6.61-11.61,0-18.44-7.32-6.57-7-6.56-18.13,0-10.95,6.37-17.8Q621.15,17.85,633.14,17.85Zm-.38,9.77a10.15,10.15,0,0,0-8.66,4.16Q621,36,621,43.39t3.12,11.53A10.35,10.35,0,0,0,632.71,59a10,10,0,0,0,8.19-3.73q3.4-4.11,3.4-12,0-7.32-3-11.38A10.13,10.13,0,0,0,632.76,27.62Z"/><path class="cls-1" d="M681.75,19.17v6.75A21.13,21.13,0,0,1,686,21.44a19.27,19.27,0,0,1,11.81-3.64,17.91,17.91,0,0,1,10.48,3,14.09,14.09,0,0,1,5.72,9.63,39.81,39.81,0,0,1,.42,6.66V67.43H701.3V39.71a20.15,20.15,0,0,0-.85-6.85,5.89,5.89,0,0,0-2.69-3,9.82,9.82,0,0,0-4.92-1.23,10.05,10.05,0,0,0-7.36,2.84,9.6,9.6,0,0,0-2.74,5.43,32.14,32.14,0,0,0-.38,5.57v25H669.19V19.17Z"/><path class="cls-1" d="M771.94,67.43H758.48a15.41,15.41,0,0,1-.85-4.68q-6.2,6-15.91,6-7.71,0-12-3.45-4.9-4-4.91-11.14,0-9.06,8.4-12.61,3.45-1.41,12.56-2.59,8.26-1.05,10.2-2.22c1-.6,1.51-1.8,1.51-3.59q0-6.37-8.64-6.38-5.48,0-7.65,2.51A9.73,9.73,0,0,0,739.4,34H726.89q.61-7.54,5.81-11.71,5.56-4.48,16.52-4.48,11.43,0,17,4.58a11.05,11.05,0,0,1,4,7.27,37.83,37.83,0,0,1,.23,5c0,.66,0,3.9-.14,9.72q-.09,8.41-.09,10a55.51,55.51,0,0,0,.57,9.3A16.68,16.68,0,0,0,771.94,67.43ZM757.44,44a13.84,13.84,0,0,1-2.88,1.28,57.67,57.67,0,0,1-6.37,1.22,22.61,22.61,0,0,0-6.8,1.8,5.66,5.66,0,0,0-3,5.43,6.08,6.08,0,0,0,2.17,5,8,8,0,0,0,5.24,1.55,12.08,12.08,0,0,0,9.4-4,7.55,7.55,0,0,0,2-3.78,17,17,0,0,0,.24-3Z"/><path class="cls-1" d="M794.93.9V67.43H781.76V.9Z"/></g></g></svg>