<svg xmlns="http://www.w3.org/2000/svg" viewBox="0 0 495.74 153.67"><defs><style>.cls-1{fill:#fff;}</style></defs><g id="Layer_2" data-name="Layer 2"><g id="Layer_1-2" data-name="Layer 1"><path class="cls-1" d="M431.17,120c-.22.56-.47,1.11-.67,1.68a16.73,16.73,0,0,1-16.43,11.59c-5-.18-10.07,0-15.2,0-.21-.57-.38-1.06-.56-1.56-.16,0-.36,0-.46.05-1.64,1.25-3.06.85-4.53-.38-5.35-4.45-10.74-8.85-16.11-13.27-.66-.54-1.36-1-2.48-1.91v16.59c-4.63,1.45-8.88-1.34-9.22-5.83-.12-1.51,0-3,0-4.55a10.36,10.36,0,0,0-.27-2.36c-2.61,7.57-7.3,12.79-15.62,13.11-8.49.34-13.56-4.64-16.61-12.43-.43.92-.73,1.56-1,2.2-3.2,7.27-10.28,11.36-17.52,10.12a17,17,0,0,1-13.86-15.68,18.12,18.12,0,0,1,.84-7.34c.2-.59.34-1.2.56-2a10.19,10.19,0,0,0-1.48-.24c-5.68,0-11.36,0-17,0-.83,0-1.8-.17-2.1,1.37a16.38,16.38,0,0,0,2,.29c3,0,5.92,0,8.88,0a7.47,7.47,0,0,1,7.56,8.34,7,7,0,0,1-.33,1.17H281.37v14a71.22,71.22,0,0,1-9,.12c-.07-.87-.19-1.64-.19-2.4,0-7.12-.05-14.23,0-21.35a13.67,13.67,0,0,1,.73-4.69c1.51-3.94,4.48-6.27,8.74-6.39,5.43-.16,10.87-.09,16.31,0a6.79,6.79,0,0,1,5.94,3.46c.33.53.65,1.07,1.07,1.77,4.28-4,9.1-6.08,14.92-4.94,5.66,1.12,9.43,4.67,12,9.75l.51-.19V98.44h9.11c0,.9.12,1.76.13,2.61,0,4.72-.06,9.44,0,14.16a11,11,0,0,0,.85,4.17,6.93,6.93,0,0,0,12.89-.19,11.61,11.61,0,0,0,.78-4.18c.09-4.56,0-9.12,0-13.68V98.5h8.86c.12.45.27,1,.43,1.62.14,0,.35.16.42.1,1.89-1.48,3.46-.86,5.12.54,5.2,4.38,10.47,8.67,15.72,13,.6.49,1.24,1,2,1.54.83-2,.37-3.79.45-5.56s0-3.68,0-5.52V98.78c3.44-1.09,5.65-.17,9.1,3.8.1-1.44.17-2.66.27-4.14.79,0,1.56-.12,2.33-.12,4.4,0,8.8,0,13.2,0,7.78.05,13.63,4.18,16.27,11.47.21.57.46,1.12.68,1.69l.5-.06c0-.83,0-1.66,0-2.48.16-6.54,4.25-10.61,10.74-10.65,4.56,0,9.12.05,13.67,0,3.41-.06,6.11,1,7.73,4.19.09.17.34.26.73.56.1-1.59.19-3,.29-4.5.81-.06,1.51-.15,2.21-.15q8.52,0,17,0c5.08,0,8.63,2.5,10.07,7a10.64,10.64,0,0,1-3.79,12l-1.49,1.18,6.9,14.67H485.56l-5.09-10.66c-1.62-3.38-2.34-3.74-6.47-3.11-.54,4.43.06,9-.35,13.73-.78.06-1.54.17-2.3.17-9.83,0-19.67,0-29.5-.05-5.7,0-9.77-3.95-10.16-9.7-.08-1.15,0-2.31,0-3.47Zm9.56-10.74a19.19,19.19,0,0,0,2.32.3c3.11,0,6.23-.09,9.33.07,4.83.26,7.77,4.44,6.54,9.47H441.13a5.58,5.58,0,0,0,.19,4.61h2.52c4.39,0,8.78,0,13.17,0a7.23,7.23,0,0,1,6.41,3.51,15.5,15.5,0,0,0,1.06,1.29c.54-5.52.3-18.89-.4-20.71h-4.45c-5.51,0-11,0-16.52,0C442.3,107.84,441.28,107.52,440.73,109.28Zm-32.86,14.21a5.07,5.07,0,0,0,.85.24c2,0,4,.06,6,0a7.44,7.44,0,0,0,7.38-6.25c.76-3.89-1.11-7.83-4.54-9.07-3.14-1.14-6.39-.53-9.68-.48Zm-83.66-7.23c0-4.57-2.95-8-6.7-8.38-3.46-.37-6.95,2.38-7.68,6.2a7.87,7.87,0,0,0,2.91,8.13,6.24,6.24,0,0,0,7.19.75A7.58,7.58,0,0,0,324.21,116.26Zm161-6.94.21-.72c-.4-.25-.8-.71-1.2-.71-3.1-.07-6.2,0-9.3,0a1.15,1.15,0,0,0-.66.21c-.17.13-.36.39-.33.56s.22.68.42.74a6.39,6.39,0,0,0,1.64.17c2,0,4,0,6-.08C483.06,109.43,484.14,109.36,485.23,109.32Z"/><path class="cls-1" d="M232.65,133v-9.64l-.46-.19c-3.34,6.17-8.15,10.15-15.38,10s-11.93-4.31-15.12-11l-1.38,2.42c-3.84,6.85-11.3,10.14-18.54,8-6.29-1.91-10-6.4-11.58-12.65a17.55,17.55,0,0,1,.44-9.92c.15-.46.29-.91.41-1.38a2.61,2.61,0,0,0-.1-.63,13.76,13.76,0,0,0-1.75-.2q-8.16,0-16.32,0c-.86,0-2-.3-2.3,1.41a18.55,18.55,0,0,0,2.06.25c3,0,6.08-.08,9.11,0a7.45,7.45,0,0,1,7.32,8.74,4.18,4.18,0,0,1-.35.69h-18c-.63,4.81.06,9.43-.44,14.14h-8.73c-.07-.68-.19-1.3-.19-1.91,0-7.44,0-14.87,0-22.31a10.7,10.7,0,0,1,2.19-6.71A9.18,9.18,0,0,1,151,98.33c5.35-.08,10.71-.06,16.07,0a7,7,0,0,1,6.27,3.75l.82,1.53c4.37-4.07,9.33-6.22,15.29-4.91s9.58,5.09,12.18,10.78c3.18-6.71,7.84-10.91,15.06-11.11s12.14,3.68,15.89,9.8c.06-3.19.12-6.37.17-9.41.39-.21.53-.34.67-.34,5.75,0,11.53-.3,17.25.12,7.89.59,14.13,7.22,14.78,15.23.6,7.39-2,13.32-8.41,17.35a13.39,13.39,0,0,1-7,2.13c-5.36.06-10.72,0-16.08,0A9.83,9.83,0,0,1,232.65,133ZM241.91,108c-.1,5.33-.09,10.45,0,15.52a6.08,6.08,0,0,0,1,.26c2.07,0,4.15.07,6.22,0a7.64,7.64,0,0,0,7.28-7.22c.35-3.83-2.12-7.6-5.69-8.38C247.89,107.53,245,107.84,241.91,108Zm-63.08,8.71a21.8,21.8,0,0,0,1.46,3.71,6.77,6.77,0,0,0,7.2,3.2,7.59,7.59,0,0,0,5.8-6.32,7.82,7.82,0,0,0-3.15-8,6.2,6.2,0,0,0-7-.61C180.24,110.13,179,112.68,178.83,116.67Zm45.58-.45c0-4.54-3-8-6.72-8.35-3.47-.35-7,2.41-7.67,6.23a7.86,7.86,0,0,0,2.93,8.12,6.26,6.26,0,0,0,7.19.74A7.63,7.63,0,0,0,224.41,116.22Z"/><path class="cls-1" d="M119.77,108.25c-.47-.28-1-.53-1.4-.85-3.79-2.81-7.59-5.59-11.33-8.46a4.33,4.33,0,0,1-1.62-2.21c-1.87-9-2.86-18-1.54-27.14a31.71,31.71,0,0,1,2.82-9.37,18.83,18.83,0,0,1,6.3-7.7,2.59,2.59,0,0,0,.84-1A12.63,12.63,0,0,0,107.23,55c-4.49,4.23-6.81,9.58-7.77,15.58a47,47,0,0,0,1.68,20.85c.25.83.49,1.66.82,2.81a4.51,4.51,0,0,1-.95-.47c-5.83-5.27-11.18-11-15.19-17.81-3.46-5.9-5.55-12.2-5.33-19.13a31.69,31.69,0,0,1,2.69-12.09c1.86-4.15,4-8.18,6.16-12.18s4.59-7.87,6.72-11.89A24.91,24.91,0,0,0,99.2,10,17.46,17.46,0,0,0,96.41,0c.37.05.61,0,.74.12C104.64,5.74,111.94,11.6,118,18.8a66.21,66.21,0,0,1,6.1,8.57A27.26,27.26,0,0,1,127,49.55c-1.67,5.91-3.82,11.68-5.74,17.53a70.57,70.57,0,0,0-3.72,18.26,65.23,65.23,0,0,0,1.88,19.24c.29,1.15.54,2.3.81,3.44Z"/><path class="cls-1" d="M118.15,111.81c-3.71,1.06-7,1.92-10.3,3A78.55,78.55,0,0,0,80,130.38c-4.23,3.66-8.3,7.5-12.46,11.24-5.22,4.7-10.9,8.65-17.78,10.52a48.73,48.73,0,0,1-17.84,1.22c-10.72-1.08-21-4-31.14-7.5a4.43,4.43,0,0,1-.8-.56c.82-.14,1.4-.3,2-.34a22,22,0,0,0,14.3-6.54A101.31,101.31,0,0,0,23.73,130c3.77-4.65,7.24-9.56,11.16-14.09a42.88,42.88,0,0,1,25-14.5,58.22,58.22,0,0,1,17.67-.57c5,.58,9.93,1.61,14.88,2.45a14.22,14.22,0,0,1,1.57.53c-1.18.28-1.92.48-2.67.64a63.88,63.88,0,0,0-22.33,9A31.07,31.07,0,0,0,58.9,123.75,13.54,13.54,0,0,0,57.07,134c.34-.54.63-.8.67-1.09.55-3.91,2.71-6.95,5.32-9.72a47.61,47.61,0,0,1,13.21-9.42,120.3,120.3,0,0,1,21.43-8.27,5,5,0,0,1,2.77,0c5.53,1.83,11,3.78,16.53,5.7A12.17,12.17,0,0,1,118.15,111.81Z"/><path class="cls-1" d="M101.54,98.8c-5.66-2.41-11.13-5.09-16.92-6.93l-.32.58C86.68,94,89,95.64,91.44,97.13s5,2.89,7.42,4.56a10.89,10.89,0,0,1-1.39-.23c-10.48-2.94-21.23-4.52-32-6.21A183.16,183.16,0,0,1,44.4,91,52.84,52.84,0,0,1,10.91,64.23,98.46,98.46,0,0,1,4.43,49.49c1.83-.3,3.43-.62,5.05-.84a128.48,128.48,0,0,1,27.72-1c16.58,1.32,29.87,8.63,40,21.72,3.67,4.73,7.24,9.54,10.88,14.31A100.5,100.5,0,0,0,100.86,98,7.91,7.91,0,0,1,101.54,98.8Z"/><path class="cls-1" d="M213.36,73.25a6.37,6.37,0,0,0-.38.9c-.38,3.61-.15,3.87,3.38,3.87,4.24,0,8.47,0,12.71,0,5.22.06,8.3,4,7.22,9.36-.71,0-1.48.12-2.25.12-6.4,0-12.79,0-19.19,0-4.81,0-8.31-1.89-10.28-6.37a2.9,2.9,0,0,0-.41-.58s-.15,0-.23-.06c-1.65,5.63-4,7.42-9.36,6.81-.18-4.52.05-9.12-.14-13.9-4.85-.31-9.45-.11-14.34-.15a39.94,39.94,0,0,0-.22,7c-.05,2.31,0,4.62,0,6.85-4.82,1.4-9.06-1.62-9.16-6.41-.11-5,0-10.08,0-15.12V62.17c-4-.07-7.83-.07-11.94,0-.11,4.33,0,8.47-.06,12.6s0,8.29,0,12.61h-9V62.22H138.07c-1.28-4.95,1.91-9.46,6.58-9.54,6.32-.1,12.63,0,18.95,0A6.74,6.74,0,0,1,169.37,56c.38.56.69,1.18,1.2,2,1.74-4.14,4.61-5.89,9-5.28.63,3.51-.1,7.12.47,10.87,4.72.29,9.37.17,14.38.07,0-3.73.06-7.28.09-10.76,5.27-1,8.25,1.23,9.31,6.89a10.34,10.34,0,0,0,.8-1.21,9.73,9.73,0,0,1,9.47-6.09c4.88,0,9.75,0,14.63,0,5.41.06,8.42,3.67,7.68,9.41-.8,0-1.65.12-2.5.12-6.24,0-12.48,0-18.71,0-.87,0-2-.3-2.22,1.38a13.4,13.4,0,0,0,1.83.28c3.12,0,6.24-.06,9.36,0,5,.15,8,4.19,6.92,9.46Z"/></g></g></svg>