<svg xmlns="http://www.w3.org/2000/svg" viewBox="0 0 278.36 69.74"><defs><style>.cls-1{fill:#fff;}</style></defs><g id="Layer_2" data-name="Layer 2"><g id="Layer_1-2" data-name="Layer 1"><path class="cls-1" d="M49.91,1.61V13.93H14.5V28.09H47V39.52H14.5V55.81H50.57V68.14H0V1.61Z"/><path class="cls-1" d="M134.34,1.61V68.14H120.55V48.21q0-16.05.9-33.71-3.21,12.88-6.8,23.27L104.26,68.14H92.83L82.16,38.39a213.41,213.41,0,0,1-6.75-23.61q.86,19.54.85,31.87V68.14H62.47V1.61H83.15l10,28.89a167,167,0,0,1,5.52,21.06,181,181,0,0,1,5.71-21.2l9.49-28.75Z"/><path class="cls-1" d="M208.47,42.45a30.39,30.39,0,0,1-6.94,17.66q-8.07,9.63-22.95,9.63-15.72,0-24.55-11.14-7.51-9.54-7.51-23.8,0-14.88,8.92-24.88T179.15,0q13.78,0,22.24,9.11A24,24,0,0,1,208,23.89H193.65a14.86,14.86,0,0,0-3.55-7.27q-4.09-4.48-11.23-4.49-9.54,0-14.17,8-3.54,6-3.54,14.82t3.68,15a15.3,15.3,0,0,0,13.88,7.7q8,0,12-5.81A20.6,20.6,0,0,0,194,42.45Z"/><path class="cls-1" d="M278.36,42.45a30.4,30.4,0,0,1-6.95,17.66q-8.07,9.63-22.94,9.63-15.74,0-24.56-11.14-7.5-9.54-7.51-23.8,0-14.88,8.93-24.88T249,0q13.79,0,22.24,9.11a24,24,0,0,1,6.61,14.78H263.53A14.93,14.93,0,0,0,260,16.62q-4.11-4.48-11.24-4.49-9.54,0-14.17,8Q231,26.1,231,34.94t3.69,15a15.28,15.28,0,0,0,13.88,7.7q8,0,12-5.81a20.48,20.48,0,0,0,3.21-9.35Z"/></g></g></svg>